<svg width="118" height="118" viewBox="0 0 118 118" fill="none" xmlns="http://www.w3.org/2000/svg">
<circle cx="59" cy="59" r="59" fill="#50A6E3"/>
<circle cx="59" cy="59" r="58.5" stroke="url(#paint0_radial_2_5)" stroke-opacity="0.2"/>
<circle cx="59" cy="59" r="55" fill="white"/>
<g clip-path="url(#paint1_diamond_2_5_clip_path)" data-figma-skip-parse="true"><g transform="matrix(0.0825 -0.00100001 0.00144506 0.119217 18.5 66)"><rect x="0" y="0" width="1870.18" height="561.054" fill="url(#paint1_diamond_2_5)" opacity="0.9" shape-rendering="crispEdges"/><rect x="0" y="0" width="1870.18" height="561.054" transform="scale(1 -1)" fill="url(#paint1_diamond_2_5)" opacity="0.9" shape-rendering="crispEdges"/><rect x="0" y="0" width="1870.18" height="561.054" transform="scale(-1 1)" fill="url(#paint1_diamond_2_5)" opacity="0.9" shape-rendering="crispEdges"/><rect x="0" y="0" width="1870.18" height="561.054" transform="scale(-1)" fill="url(#paint1_diamond_2_5)" opacity="0.9" shape-rendering="crispEdges"/></g></g><path d="M60.064 94.92C53.536 94.92 48.032 93.896 43.552 91.848C39.136 89.8 35.776 87.016 33.472 83.496C31.232 79.912 30.112 75.816 30.112 71.208H47.392C47.392 72.872 47.84 74.408 48.736 75.816C49.696 77.16 51.104 78.216 52.96 78.984C54.816 79.752 57.184 80.136 60.064 80.136C62.56 80.136 64.672 79.816 66.4 79.176C68.192 78.536 69.536 77.64 70.432 76.488C71.392 75.336 71.872 73.96 71.872 72.36C71.872 70.312 71.008 68.744 69.28 67.656C67.552 66.504 64.64 65.768 60.544 65.448L56.032 65.064C48.8 64.424 43.04 62.152 38.752 58.248C34.464 54.344 32.32 49.16 32.32 42.696C32.32 38.088 33.376 34.152 35.488 30.888C37.664 27.624 40.704 25.128 44.608 23.4C48.512 21.672 53.12 20.808 58.432 20.808C64.192 20.808 69.056 21.768 73.024 23.688C77.056 25.608 80.128 28.328 82.24 31.848C84.352 35.304 85.408 39.336 85.408 43.944H68.128C68.128 42.408 67.744 41 66.976 39.72C66.208 38.44 65.088 37.448 63.616 36.744C62.208 35.976 60.48 35.592 58.432 35.592C56.512 35.592 54.88 35.912 53.536 36.552C52.256 37.128 51.264 37.96 50.56 39.048C49.92 40.136 49.6 41.352 49.6 42.696C49.6 44.488 50.208 46.024 51.424 47.304C52.64 48.584 54.752 49.352 57.76 49.608L62.272 49.992C67.52 50.44 72.16 51.592 76.192 53.448C80.224 55.24 83.392 57.704 85.696 60.84C88 63.976 89.152 67.816 89.152 72.36C89.152 76.904 87.968 80.872 85.6 84.264C83.296 87.656 79.968 90.28 75.616 92.136C71.328 93.992 66.144 94.92 60.064 94.92Z" data-figma-gradient-fill="{&#34;type&#34;:&#34;GRADIENT_DIAMOND&#34;,&#34;stops&#34;:[{&#34;color&#34;:{&#34;r&#34;:0.83305752277374268,&#34;g&#34;:0.91664499044418335,&#34;b&#34;:0.96165364980697632,&#34;a&#34;:1.0},&#34;position&#34;:0.0},{&#34;color&#34;:{&#34;r&#34;:0.060611978173255920,&#34;g&#34;:0.60858780145645142,&#34;b&#34;:1.0,&#34;a&#34;:1.0},&#34;position&#34;:1.0}],&#34;stopsVar&#34;:[{&#34;color&#34;:{&#34;r&#34;:0.83305752277374268,&#34;g&#34;:0.91664499044418335,&#34;b&#34;:0.96165364980697632,&#34;a&#34;:1.0},&#34;position&#34;:0.0},{&#34;color&#34;:{&#34;r&#34;:0.060611978173255920,&#34;g&#34;:0.60858780145645142,&#34;b&#34;:1.0,&#34;a&#34;:1.0},&#34;position&#34;:1.0}],&#34;transform&#34;:{&#34;m00&#34;:165.00001525878906,&#34;m01&#34;:2.8901183605194092,&#34;m02&#34;:-65.4450683593750,&#34;m10&#34;:-2.0000107288360596,&#34;m11&#34;:238.43367004394531,&#34;m12&#34;:-52.216831207275391},&#34;opacity&#34;:0.89999997615814209,&#34;blendMode&#34;:&#34;NORMAL&#34;,&#34;visible&#34;:true}"/>
<defs>
<clipPath id="paint1_diamond_2_5_clip_path"><path d="M60.064 94.92C53.536 94.92 48.032 93.896 43.552 91.848C39.136 89.8 35.776 87.016 33.472 83.496C31.232 79.912 30.112 75.816 30.112 71.208H47.392C47.392 72.872 47.84 74.408 48.736 75.816C49.696 77.16 51.104 78.216 52.96 78.984C54.816 79.752 57.184 80.136 60.064 80.136C62.56 80.136 64.672 79.816 66.4 79.176C68.192 78.536 69.536 77.64 70.432 76.488C71.392 75.336 71.872 73.96 71.872 72.36C71.872 70.312 71.008 68.744 69.28 67.656C67.552 66.504 64.64 65.768 60.544 65.448L56.032 65.064C48.8 64.424 43.04 62.152 38.752 58.248C34.464 54.344 32.32 49.16 32.32 42.696C32.32 38.088 33.376 34.152 35.488 30.888C37.664 27.624 40.704 25.128 44.608 23.4C48.512 21.672 53.12 20.808 58.432 20.808C64.192 20.808 69.056 21.768 73.024 23.688C77.056 25.608 80.128 28.328 82.24 31.848C84.352 35.304 85.408 39.336 85.408 43.944H68.128C68.128 42.408 67.744 41 66.976 39.72C66.208 38.44 65.088 37.448 63.616 36.744C62.208 35.976 60.48 35.592 58.432 35.592C56.512 35.592 54.88 35.912 53.536 36.552C52.256 37.128 51.264 37.96 50.56 39.048C49.92 40.136 49.6 41.352 49.6 42.696C49.6 44.488 50.208 46.024 51.424 47.304C52.64 48.584 54.752 49.352 57.76 49.608L62.272 49.992C67.52 50.44 72.16 51.592 76.192 53.448C80.224 55.24 83.392 57.704 85.696 60.84C88 63.976 89.152 67.816 89.152 72.36C89.152 76.904 87.968 80.872 85.6 84.264C83.296 87.656 79.968 90.28 75.616 92.136C71.328 93.992 66.144 94.92 60.064 94.92Z"/></clipPath><radialGradient id="paint0_radial_2_5" cx="0" cy="0" r="1" gradientUnits="userSpaceOnUse" gradientTransform="translate(59 59) rotate(90) scale(59)">
<stop stop-color="#A3D9FF"/>
<stop offset="1" stop-color="#0F9BFF"/>
</radialGradient>
<linearGradient id="paint1_diamond_2_5" x1="0" y1="0" x2="500" y2="500" gradientUnits="userSpaceOnUse">
<stop stop-color="#D4EAF5"/>
<stop offset="1" stop-color="#0F9BFF"/>
</linearGradient>
</defs>
</svg>
